<svg xmlns="http://www.w3.org/2000/svg" viewBox="0 0 2400 2400" preserveAspectRatio="xMidYMid slice"><circle cx="1966.3" cy="251.2" r="1" fill="#fff" opacity="0.79"/><circle cx="1511.3" cy="1868.4" r="0.6" fill="#fff" opacity="0.86"/><circle cx="2356.7" cy="2202.9" r="1" fill="#fff" opacity="0.27"/><circle cx="2277.0" cy="1799.2" r="0.6" fill="#fff" opacity="0.26"/><circle cx="493.7" cy="2245.9" r="0.6" fill="#fff" opacity="0.22"/><circle cx="1992.8" cy="416.0" r="0.6" fill="#fff" opacity="0.21"/><circle cx="2268.5" cy="477.8" r="1" fill="#fff" opacity="0.40"/><circle cx="256.4" cy="944.4" r="1" fill="#fff" opacity="0.63"/><circle cx="546.5" cy="1278.6" r="0.6" fill="#fff" opacity="0.23"/><circle cx="1175.6" cy="129.8" r="0.6" fill="#fff" opacity="0.79"/><circle cx="698.1" cy="1520.6" r="0.6" fill="#fff" opacity="0.84"/><circle cx="864.0" cy="1787.6" r="0.6" fill="#fff" opacity="0.69"/><circle cx="2372.2" cy="123.1" r="0.6" fill="#fff" opacity="0.20"/><circle cx="2124.9" cy="311.0" r="0.6" fill="#fff" opacity="0.54"/><circle cx="698.7" cy="1332.3" r="0.6" fill="#fff" opacity="0.57"/><circle cx="1749.9" cy="1533.6" r="0.6" fill="#fff" opacity="0.48"/><circle cx="528.0" cy="1445.2" r="0.6" fill="#fff" opacity="0.26"/><circle cx="1115.0" cy="41.9" r="0.6" fill="#fff" opacity="0.46"/><circle cx="2310.2" cy="473.6" r="0.6" fill="#fff" opacity="0.46"/><circle cx="1065.8" cy="1023.7" r="1" fill="#fff" opacity="0.30"/><circle cx="1270.5" cy="1731.1" r="0.6" fill="#fff" opacity="0.59"/><circle cx="1976.9" cy="1551.4" r="1" fill="#fff" opacity="0.58"/><circle cx="2175.3" cy="1583.6" r="0.6" fill="#fff" opacity="0.68"/><circle cx="1240.3" cy="2154.1" r="1" fill="#fff" opacity="0.72"/><circle cx="2142.5" cy="35.5" r="0.6" fill="#fff" opacity="0.72"/><circle cx="1694.1" cy="638.1" r="1" fill="#fff" opacity="0.44"/><circle cx="2172.6" cy="2096.5" r="0.6" fill="#fff" opacity="0.18"/><circle cx="2207.6" cy="2141.7" r="1.45" fill="#fff" opacity="0.85"/><circle cx="54.8" cy="109.1" r="1" fill="#fff" opacity="0.59"/><circle cx="2252.9" cy="1656.2" r="0.6" fill="#fff" opacity="0.34"/><circle cx="1800.1" cy="1180.8" r="0.6" fill="#fff" opacity="0.78"/><circle cx="1801.8" cy="2302.4" r="0.6" fill="#fff" opacity="0.54"/><circle cx="450.5" cy="1965.0" r="0.6" fill="#fff" opacity="0.23"/><circle cx="550.2" cy="2176.5" r="0.6" fill="#fff" opacity="0.80"/><circle cx="1780.0" cy="211.3" r="0.6" fill="#fff" opacity="0.64"/><circle cx="961.6" cy="792.9" r="0.6" fill="#fff" opacity="0.87"/><circle cx="1812.7" cy="1329.1" r="0.6" fill="#fff" opacity="0.90"/><circle cx="201.8" cy="254.8" r="1" fill="#fff" opacity="0.29"/><circle cx="358.9" cy="1285.2" r="0.6" fill="#fff" opacity="0.64"/><circle cx="1266.9" cy="646.0" r="0.6" fill="#fff" opacity="0.88"/><circle cx="1890.9" cy="88.3" r="1" fill="#fff" opacity="0.70"/><circle cx="137.0" cy="894.8" r="0.6" fill="#fff" opacity="0.54"/><circle cx="902.5" cy="2068.6" r="1" fill="#fff" opacity="0.30"/><circle cx="1117.4" cy="1968.3" r="1.45" fill="#fff" opacity="0.83"/><circle cx="1120.3" cy="404.4" r="1" fill="#fff" opacity="0.31"/><circle cx="2182.7" cy="737.1" r="0.6" fill="#fff" opacity="0.29"/><circle cx="500.0" cy="31.2" r="0.6" fill="#fff" opacity="0.19"/><circle cx="1880.3" cy="788.1" r="0.6" fill="#fff" opacity="0.26"/><circle cx="299.7" cy="2125.5" r="0.6" fill="#fff" opacity="0.64"/><circle cx="1309.2" cy="1141.2" r="0.6" fill="#fff" opacity="0.40"/><circle cx="851.4" cy="820.5" r="0.6" fill="#fff" opacity="0.38"/><circle cx="102.1" cy="1618.8" r="0.6" fill="#fff" opacity="0.59"/><circle cx="765.2" cy="1713.5" r="0.6" fill="#fff" opacity="0.90"/><circle cx="24.7" cy="235.0" r="1" fill="#fff" opacity="0.81"/><circle cx="564.9" cy="1516.6" r="0.6" fill="#fff" opacity="0.42"/><circle cx="284.7" cy="299.1" r="0.6" fill="#fff" opacity="0.22"/><circle cx="1761.7" cy="896.7" r="1" fill="#fff" opacity="0.26"/><circle cx="1051.8" cy="656.9" r="0.6" fill="#fff" opacity="0.75"/><circle cx="1786.6" cy="848.7" r="0.6" fill="#fff" opacity="0.62"/><circle cx="2193.3" cy="814.2" r="1" fill="#fff" opacity="0.36"/><circle cx="1173.1" cy="117.4" r="0.6" fill="#fff" opacity="0.56"/><circle cx="1691.0" cy="817.9" r="1" fill="#fff" opacity="0.68"/><circle cx="1142.9" cy="955.0" r="0.6" fill="#fff" opacity="0.53"/><circle cx="2164.4" cy="1245.6" r="0.6" fill="#fff" opacity="0.79"/><circle cx="1386.4" cy="1881.5" r="1.45" fill="#fff" opacity="0.22"/><circle cx="2133.9" cy="1314.2" r="0.6" fill="#fff" opacity="0.67"/><circle cx="437.5" cy="1773.3" r="0.6" fill="#fff" opacity="0.37"/><circle cx="1450.4" cy="1740.4" r="0.6" fill="#fff" opacity="0.26"/><circle cx="2242.9" cy="786.0" r="0.6" fill="#fff" opacity="0.59"/><circle cx="1716.7" cy="2274.4" r="1" fill="#fff" opacity="0.73"/><circle cx="1946.0" cy="578.3" r="0.6" fill="#fff" opacity="0.54"/><circle cx="445.2" cy="1835.4" r="0.6" fill="#fff" opacity="0.80"/><circle cx="446.1" cy="1157.0" r="0.6" fill="#fff" opacity="0.66"/><circle cx="625.8" cy="1934.3" r="1.45" fill="#fff" opacity="0.77"/><circle cx="1532.2" cy="259.0" r="0.6" fill="#fff" opacity="0.42"/><circle cx="1195.9" cy="2106.3" r="0.6" fill="#fff" opacity="0.18"/><circle cx="348.7" cy="303.9" r="1" fill="#fff" opacity="0.50"/><circle cx="2024.0" cy="784.5" r="0.6" fill="#fff" opacity="0.26"/><circle cx="1195.2" cy="79.4" r="0.6" fill="#fff" opacity="0.59"/><circle cx="800.3" cy="1505.2" r="0.6" fill="#fff" opacity="0.75"/><circle cx="1805.9" cy="1368.0" r="0.6" fill="#fff" opacity="0.34"/><circle cx="1347.1" cy="460.3" r="1.45" fill="#fff" opacity="0.21"/><circle cx="576.3" cy="1915.4" r="0.6" fill="#fff" opacity="0.54"/><circle cx="2023.4" cy="1730.4" r="0.6" fill="#fff" opacity="0.79"/><circle cx="2345.0" cy="176.0" r="0.6" fill="#fff" opacity="0.24"/><circle cx="1032.4" cy="1378.9" r="0.6" fill="#fff" opacity="0.27"/><circle cx="979.8" cy="360.7" r="0.6" fill="#fff" opacity="0.66"/><circle cx="373.5" cy="675.4" r="0.6" fill="#fff" opacity="0.75"/><circle cx="1430.9" cy="1671.2" r="0.6" fill="#fff" opacity="0.64"/><circle cx="122.3" cy="1166.4" r="1" fill="#fff" opacity="0.37"/><circle cx="1568.5" cy="1461.5" r="1.45" fill="#fff" opacity="0.71"/><circle cx="2268.2" cy="78.3" r="1.45" fill="#fff" opacity="0.38"/><circle cx="1376.7" cy="2226.7" r="0.6" fill="#fff" opacity="0.89"/><circle cx="2196.2" cy="1692.4" r="0.6" fill="#fff" opacity="0.88"/><circle cx="211.4" cy="2385.3" r="0.6" fill="#fff" opacity="0.40"/><circle cx="839.1" cy="1787.7" r="0.6" fill="#fff" opacity="0.19"/><circle cx="532.9" cy="1826.3" r="0.6" fill="#fff" opacity="0.85"/><circle cx="1276.4" cy="1788.5" r="0.6" fill="#fff" opacity="0.22"/><circle cx="402.4" cy="1586.3" r="0.6" fill="#fff" opacity="0.76"/><circle cx="314.8" cy="2081.0" r="0.6" fill="#fff" opacity="0.32"/><circle cx="1700.4" cy="2101.3" r="0.6" fill="#fff" opacity="0.20"/><circle cx="558.4" cy="580.0" r="0.6" fill="#fff" opacity="0.57"/><circle cx="343.2" cy="1207.0" r="0.6" fill="#fff" opacity="0.22"/><circle cx="1366.3" cy="139.6" r="0.6" fill="#fff" opacity="0.31"/><circle cx="1655.9" cy="631.3" r="1.45" fill="#fff" opacity="0.87"/><circle cx="358.9" cy="1838.3" r="1.45" fill="#fff" opacity="0.73"/><circle cx="2301.5" cy="1297.1" r="1.45" fill="#fff" opacity="0.30"/><circle cx="377.2" cy="35.7" r="0.6" fill="#fff" opacity="0.88"/><circle cx="830.0" cy="1094.8" r="1" fill="#fff" opacity="0.25"/><circle cx="1482.2" cy="1356.3" r="0.6" fill="#fff" opacity="0.57"/><circle cx="2003.9" cy="1708.5" r="1.45" fill="#fff" opacity="0.31"/><circle cx="549.3" cy="803.5" r="1" fill="#fff" opacity="0.77"/><circle cx="1488.8" cy="2090.5" r="1" fill="#fff" opacity="0.74"/><circle cx="524.0" cy="557.8" r="0.6" fill="#fff" opacity="0.59"/><circle cx="148.7" cy="719.0" r="0.6" fill="#fff" opacity="0.89"/><circle cx="2276.3" cy="1113.3" r="1.45" fill="#fff" opacity="0.41"/><circle cx="829.9" cy="909.5" r="0.6" fill="#fff" opacity="0.51"/><circle cx="689.5" cy="820.8" r="1.45" fill="#fff" opacity="0.51"/><circle cx="405.6" cy="1514.2" r="0.6" fill="#fff" opacity="0.60"/><circle cx="1333.4" cy="1129.9" r="1" fill="#fff" opacity="0.34"/><circle cx="2040.3" cy="590.2" r="1" fill="#fff" opacity="0.31"/><circle cx="1031.9" cy="2349.7" r="1" fill="#fff" opacity="0.24"/><circle cx="2379.7" cy="2041.7" r="0.6" fill="#fff" opacity="0.21"/><circle cx="1426.6" cy="2256.9" r="1" fill="#fff" opacity="0.27"/><circle cx="2335.3" cy="2157.3" r="0.6" fill="#fff" opacity="0.41"/><circle cx="469.2" cy="713.0" r="0.6" fill="#fff" opacity="0.74"/><circle cx="783.6" cy="1480.7" r="1" fill="#fff" opacity="0.72"/><circle cx="848.3" cy="1210.5" r="0.6" fill="#fff" opacity="0.57"/><circle cx="304.6" cy="122.5" r="0.6" fill="#fff" opacity="0.36"/><circle cx="713.3" cy="44.7" r="1.45" fill="#fff" opacity="0.36"/><circle cx="679.3" cy="536.2" r="0.6" fill="#fff" opacity="0.23"/><circle cx="1391.9" cy="471.4" r="1" fill="#fff" opacity="0.45"/><circle cx="2390.6" cy="37.3" r="1" fill="#fff" opacity="0.85"/><circle cx="1846.1" cy="828.2" r="0.6" fill="#fff" opacity="0.86"/><circle cx="1752.3" cy="2297.5" r="0.6" fill="#fff" opacity="0.91"/><circle cx="375.5" cy="1411.5" r="1" fill="#fff" opacity="0.26"/><circle cx="1947.9" cy="868.4" r="0.6" fill="#fff" opacity="0.19"/><circle cx="2222.8" cy="295.3" r="0.6" fill="#fff" opacity="0.30"/><circle cx="306.2" cy="546.5" r="0.6" fill="#fff" opacity="0.29"/><circle cx="1314.7" cy="2308.9" r="0.6" fill="#fff" opacity="0.58"/><circle cx="1236.9" cy="1999.7" r="1" fill="#fff" opacity="0.83"/><circle cx="279.1" cy="23.1" r="1.45" fill="#fff" opacity="0.66"/><circle cx="2082.3" cy="1621.3" r="0.6" fill="#fff" opacity="0.41"/><circle cx="1119.9" cy="912.2" r="0.6" fill="#fff" opacity="0.89"/><circle cx="1313.4" cy="1807.3" r="0.6" fill="#fff" opacity="0.86"/><circle cx="1612.5" cy="1337.8" r="0.6" fill="#fff" opacity="0.47"/><circle cx="780.2" cy="2090.4" r="0.6" fill="#fff" opacity="0.40"/><circle cx="1967.0" cy="1381.8" r="0.6" fill="#fff" opacity="0.44"/><circle cx="1250.2" cy="1153.5" r="1.45" fill="#fff" opacity="0.43"/><circle cx="1494.6" cy="133.3" r="0.6" fill="#fff" opacity="0.25"/><circle cx="1503.0" cy="68.8" r="0.6" fill="#fff" opacity="0.65"/><circle cx="1176.7" cy="1616.1" r="1" fill="#fff" opacity="0.87"/><circle cx="2045.6" cy="2021.9" r="0.6" fill="#fff" opacity="0.37"/><circle cx="555.0" cy="1461.1" r="0.6" fill="#fff" opacity="0.40"/><circle cx="606.6" cy="1897.6" r="0.6" fill="#fff" opacity="0.24"/><circle cx="1219.7" cy="638.8" r="0.6" fill="#fff" opacity="0.64"/><circle cx="526.9" cy="260.4" r="1" fill="#fff" opacity="0.60"/><circle cx="2028.3" cy="1326.3" r="1" fill="#fff" opacity="0.22"/><circle cx="2108.5" cy="1871.0" r="0.6" fill="#fff" opacity="0.80"/><circle cx="197.6" cy="1870.5" r="0.6" fill="#fff" opacity="0.81"/><circle cx="1937.9" cy="746.6" r="0.6" fill="#fff" opacity="0.45"/><circle cx="1795.2" cy="292.4" r="1" fill="#fff" opacity="0.33"/><circle cx="1961.0" cy="2124.2" r="0.6" fill="#fff" opacity="0.72"/><circle cx="1150.4" cy="1173.7" r="1" fill="#fff" opacity="0.90"/><circle cx="1017.4" cy="1092.5" r="1" fill="#fff" opacity="0.50"/><circle cx="676.3" cy="849.8" r="1" fill="#fff" opacity="0.80"/><circle cx="2163.3" cy="1699.1" r="0.6" fill="#fff" opacity="0.80"/><circle cx="1870.9" cy="700.0" r="0.6" fill="#fff" opacity="0.38"/><circle cx="1568.7" cy="1069.6" r="0.6" fill="#fff" opacity="0.69"/><circle cx="1212.9" cy="169.3" r="0.6" fill="#fff" opacity="0.76"/><circle cx="439.4" cy="1916.5" r="0.6" fill="#fff" opacity="0.24"/><circle cx="1985.9" cy="2386.8" r="0.6" fill="#fff" opacity="0.52"/><circle cx="182.0" cy="1331.1" r="0.6" fill="#fff" opacity="0.69"/><circle cx="1452.7" cy="2316.3" r="0.6" fill="#fff" opacity="0.92"/><circle cx="408.2" cy="2338.0" r="0.6" fill="#fff" opacity="0.87"/><circle cx="13.3" cy="885.6" r="0.6" fill="#fff" opacity="0.23"/><circle cx="1679.3" cy="721.7" r="1.45" fill="#fff" opacity="0.24"/><circle cx="448.0" cy="1048.6" r="1" fill="#fff" opacity="0.90"/><circle cx="1640.1" cy="1129.6" r="0.6" fill="#fff" opacity="0.85"/><circle cx="1225.4" cy="1879.0" r="0.6" fill="#fff" opacity="0.81"/><circle cx="2120.3" cy="1041.5" r="0.6" fill="#fff" opacity="0.79"/><circle cx="1078.1" cy="1460.5" r="0.6" fill="#fff" opacity="0.70"/><circle cx="1330.9" cy="1249.6" r="0.6" fill="#fff" opacity="0.27"/><circle cx="723.2" cy="2020.2" r="0.6" fill="#fff" opacity="0.49"/><circle cx="2362.3" cy="1835.7" r="0.6" fill="#fff" opacity="0.59"/><circle cx="2196.1" cy="725.8" r="1" fill="#fff" opacity="0.42"/><circle cx="2219.4" cy="420.8" r="0.6" fill="#fff" opacity="0.41"/><circle cx="2066.4" cy="438.7" r="1.45" fill="#fff" opacity="0.28"/><circle cx="379.3" cy="1550.7" r="0.6" fill="#fff" opacity="0.58"/><circle cx="100.9" cy="375.3" r="0.6" fill="#fff" opacity="0.19"/><circle cx="712.8" cy="1312.4" r="1.45" fill="#fff" opacity="0.63"/><circle cx="2131.0" cy="1163.0" r="0.6" fill="#fff" opacity="0.86"/><circle cx="1768.1" cy="1243.4" r="1" fill="#fff" opacity="0.19"/><circle cx="771.9" cy="396.4" r="1" fill="#fff" opacity="0.39"/><circle cx="1099.7" cy="83.8" r="1.45" fill="#fff" opacity="0.36"/><circle cx="1329.8" cy="1853.7" r="0.6" fill="#fff" opacity="0.66"/><circle cx="191.1" cy="1306.9" r="1" fill="#fff" opacity="0.56"/><circle cx="4.8" cy="2281.6" r="0.6" fill="#fff" opacity="0.73"/><circle cx="175.0" cy="277.3" r="0.6" fill="#fff" opacity="0.65"/><circle cx="844.1" cy="833.1" r="0.6" fill="#fff" opacity="0.35"/><circle cx="808.1" cy="15.2" r="0.6" fill="#fff" opacity="0.52"/><circle cx="743.8" cy="850.9" r="1" fill="#fff" opacity="0.26"/><circle cx="1906.3" cy="1578.7" r="0.6" fill="#fff" opacity="0.43"/><circle cx="1839.2" cy="2010.1" r="0.6" fill="#fff" opacity="0.63"/><circle cx="1410.6" cy="530.1" r="0.6" fill="#fff" opacity="0.90"/><circle cx="1776.7" cy="1490.1" r="0.6" fill="#fff" opacity="0.22"/><circle cx="449.4" cy="86.3" r="0.6" fill="#fff" opacity="0.69"/><circle cx="1711.5" cy="1836.0" r="0.6" fill="#fff" opacity="0.76"/><circle cx="0.6" cy="959.5" r="1" fill="#fff" opacity="0.34"/><circle cx="1049.6" cy="553.2" r="0.6" fill="#fff" opacity="0.53"/><circle cx="1718.5" cy="715.4" r="0.6" fill="#fff" opacity="0.49"/><circle cx="1808.1" cy="1300.0" r="0.6" fill="#fff" opacity="0.38"/><circle cx="2361.0" cy="657.1" r="0.6" fill="#fff" opacity="0.24"/><circle cx="130.8" cy="1487.3" r="0.6" fill="#fff" opacity="0.51"/><circle cx="1421.7" cy="1835.7" r="1.45" fill="#fff" opacity="0.71"/><circle cx="827.3" cy="871.6" r="1" fill="#fff" opacity="0.60"/><circle cx="1475.4" cy="1008.7" r="0.6" fill="#fff" opacity="0.80"/><circle cx="2255.3" cy="1882.0" r="0.6" fill="#fff" opacity="0.35"/><circle cx="1094.9" cy="915.6" r="0.6" fill="#fff" opacity="0.41"/><circle cx="272.2" cy="714.5" r="0.6" fill="#fff" opacity="0.70"/><circle cx="2266.3" cy="771.4" r="0.6" fill="#fff" opacity="0.55"/><circle cx="1393.9" cy="2366.9" r="0.6" fill="#fff" opacity="0.47"/><circle cx="570.0" cy="593.0" r="0.6" fill="#fff" opacity="0.34"/><circle cx="185.6" cy="1758.0" r="1.45" fill="#fff" opacity="0.79"/><circle cx="2157.0" cy="1660.8" r="1" fill="#fff" opacity="0.49"/><circle cx="259.2" cy="2.2" r="1" fill="#fff" opacity="0.34"/><circle cx="1307.8" cy="124.1" r="0.6" fill="#fff" opacity="0.88"/><circle cx="1652.6" cy="2106.8" r="0.6" fill="#fff" opacity="0.22"/><circle cx="1911.4" cy="120.3" r="1" fill="#fff" opacity="0.90"/><circle cx="428.0" cy="1371.9" r="0.6" fill="#fff" opacity="0.82"/><circle cx="1203.8" cy="1924.2" r="0.6" fill="#fff" opacity="0.71"/><circle cx="459.6" cy="2121.8" r="0.6" fill="#fff" opacity="0.55"/><circle cx="2265.1" cy="1394.7" r="0.6" fill="#fff" opacity="0.72"/><circle cx="22.8" cy="61.6" r="1.45" fill="#fff" opacity="0.75"/><circle cx="2316.0" cy="1775.1" r="1" fill="#fff" opacity="0.21"/><circle cx="1048.3" cy="118.7" r="0.6" fill="#fff" opacity="0.19"/><circle cx="2231.6" cy="464.6" r="0.6" fill="#fff" opacity="0.21"/><circle cx="2289.0" cy="478.9" r="1.45" fill="#fff" opacity="0.36"/><circle cx="122.6" cy="950.6" r="0.6" fill="#fff" opacity="0.35"/><circle cx="259.1" cy="1009.4" r="0.6" fill="#fff" opacity="0.87"/><circle cx="1875.8" cy="408.4" r="0.6" fill="#fff" opacity="0.26"/><circle cx="1911.9" cy="920.8" r="1" fill="#fff" opacity="0.60"/><circle cx="2300.5" cy="1727.3" r="1.45" fill="#fff" opacity="0.62"/><circle cx="749.3" cy="1587.4" r="0.6" fill="#fff" opacity="0.43"/><circle cx="550.3" cy="1593.1" r="0.6" fill="#fff" opacity="0.59"/><circle cx="1780.0" cy="1304.8" r="0.6" fill="#fff" opacity="0.19"/><circle cx="775.5" cy="2064.2" r="0.6" fill="#fff" opacity="0.24"/><circle cx="307.4" cy="390.5" r="1" fill="#fff" opacity="0.75"/><circle cx="1528.4" cy="1723.3" r="0.6" fill="#fff" opacity="0.26"/><circle cx="2108.7" cy="1939.7" r="1.45" fill="#fff" opacity="0.83"/><circle cx="2234.8" cy="884.3" r="0.6" fill="#fff" opacity="0.70"/><circle cx="1999.9" cy="428.5" r="0.6" fill="#fff" opacity="0.62"/><circle cx="216.9" cy="1063.0" r="1" fill="#fff" opacity="0.76"/><circle cx="2120.2" cy="401.4" r="0.6" fill="#fff" opacity="0.59"/><circle cx="2339.7" cy="1258.7" r="1" fill="#fff" opacity="0.86"/><circle cx="2024.9" cy="288.2" r="0.6" fill="#fff" opacity="0.33"/><circle cx="940.0" cy="500.5" r="0.6" fill="#fff" opacity="0.25"/><circle cx="2171.0" cy="2208.6" r="1.45" fill="#fff" opacity="0.64"/><circle cx="279.8" cy="2053.6" r="0.6" fill="#fff" opacity="0.68"/><circle cx="1920.4" cy="1253.2" r="1.45" fill="#fff" opacity="0.67"/><circle cx="1995.9" cy="1302.7" r="1" fill="#fff" opacity="0.56"/><circle cx="718.6" cy="1805.6" r="0.6" fill="#fff" opacity="0.61"/><circle cx="1739.6" cy="1830.1" r="0.6" fill="#fff" opacity="0.39"/><circle cx="420.2" cy="934.3" r="0.6" fill="#fff" opacity="0.52"/><circle cx="765.5" cy="706.5" r="1" fill="#fff" opacity="0.26"/><circle cx="1723.0" cy="1245.9" r="0.6" fill="#fff" opacity="0.64"/><circle cx="2289.8" cy="339.5" r="1.45" fill="#fff" opacity="0.23"/><circle cx="1623.3" cy="1573.8" r="0.6" fill="#fff" opacity="0.75"/><circle cx="940.8" cy="751.9" r="0.6" fill="#fff" opacity="0.87"/><circle cx="357.9" cy="1631.5" r="0.6" fill="#fff" opacity="0.36"/><circle cx="1366.0" cy="846.4" r="0.6" fill="#fff" opacity="0.59"/><circle cx="2126.4" cy="673.9" r="0.6" fill="#fff" opacity="0.58"/><circle cx="414.7" cy="9.8" r="0.6" fill="#fff" opacity="0.23"/><circle cx="1079.7" cy="2393.3" r="0.6" fill="#fff" opacity="0.24"/><circle cx="472.0" cy="1632.0" r="0.6" fill="#fff" opacity="0.23"/><circle cx="629.7" cy="1349.6" r="0.6" fill="#fff" opacity="0.40"/><circle cx="1343.9" cy="2247.0" r="0.6" fill="#fff" opacity="0.19"/><circle cx="2236.2" cy="917.7" r="0.6" fill="#fff" opacity="0.32"/><circle cx="1302.6" cy="2111.6" r="0.6" fill="#fff" opacity="0.87"/><circle cx="1020.0" cy="499.8" r="1.45" fill="#fff" opacity="0.60"/><circle cx="421.9" cy="65.9" r="1" fill="#fff" opacity="0.82"/><circle cx="1095.8" cy="919.7" r="0.6" fill="#fff" opacity="0.52"/><circle cx="1173.4" cy="197.1" r="1.45" fill="#fff" opacity="0.27"/><circle cx="1165.1" cy="1572.9" r="0.6" fill="#fff" opacity="0.53"/><circle cx="1096.8" cy="50.3" r="0.6" fill="#fff" opacity="0.75"/><circle cx="1245.7" cy="1140.5" r="1" fill="#fff" opacity="0.37"/><circle cx="275.0" cy="1812.8" r="0.6" fill="#fff" opacity="0.85"/><circle cx="294.6" cy="1373.3" r="0.6" fill="#fff" opacity="0.82"/><circle cx="1156.7" cy="643.1" r="1" fill="#fff" opacity="0.71"/><circle cx="1276.5" cy="757.8" r="1.45" fill="#fff" opacity="0.65"/><circle cx="1783.9" cy="1754.5" r="0.6" fill="#fff" opacity="0.53"/><circle cx="701.4" cy="2270.8" r="1" fill="#fff" opacity="0.44"/><circle cx="1880.3" cy="211.9" r="0.6" fill="#fff" opacity="0.49"/><circle cx="966.6" cy="3.5" r="0.6" fill="#fff" opacity="0.67"/><circle cx="1740.6" cy="1853.0" r="0.6" fill="#fff" opacity="0.30"/><circle cx="857.5" cy="211.8" r="0.6" fill="#fff" opacity="0.55"/><circle cx="622.0" cy="1265.9" r="1" fill="#fff" opacity="0.75"/><circle cx="2091.2" cy="726.8" r="0.6" fill="#fff" opacity="0.75"/><circle cx="790.9" cy="334.0" r="0.6" fill="#fff" opacity="0.41"/><circle cx="2291.6" cy="255.9" r="0.6" fill="#fff" opacity="0.46"/><circle cx="654.1" cy="104.9" r="0.6" fill="#fff" opacity="0.46"/><circle cx="571.6" cy="766.9" r="0.6" fill="#fff" opacity="0.32"/><circle cx="556.1" cy="127.3" r="0.6" fill="#fff" opacity="0.86"/><circle cx="779.0" cy="170.3" r="0.6" fill="#fff" opacity="0.68"/><circle cx="1896.6" cy="519.3" r="1" fill="#fff" opacity="0.36"/><circle cx="1725.7" cy="1884.2" r="0.6" fill="#fff" opacity="0.24"/><circle cx="729.0" cy="1608.0" r="0.6" fill="#fff" opacity="0.63"/><circle cx="882.4" cy="383.5" r="0.6" fill="#fff" opacity="0.83"/><circle cx="2167.3" cy="1242.1" r="0.6" fill="#fff" opacity="0.74"/><circle cx="2362.8" cy="18.1" r="0.6" fill="#fff" opacity="0.75"/><circle cx="335.5" cy="2194.0" r="0.6" fill="#fff" opacity="0.63"/><circle cx="913.0" cy="1424.4" r="0.6" fill="#fff" opacity="0.19"/><circle cx="1804.2" cy="1715.9" r="1.45" fill="#fff" opacity="0.64"/><circle cx="1668.9" cy="444.3" r="1" fill="#fff" opacity="0.60"/><circle cx="2166.7" cy="1919.8" r="0.6" fill="#fff" opacity="0.88"/><circle cx="265.0" cy="1607.1" r="1.45" fill="#fff" opacity="0.91"/><circle cx="487.6" cy="570.5" r="0.6" fill="#fff" opacity="0.48"/><circle cx="2244.8" cy="29.6" r="0.6" fill="#fff" opacity="0.30"/><circle cx="1569.0" cy="769.1" r="1" fill="#fff" opacity="0.26"/><circle cx="999.2" cy="1224.6" r="0.6" fill="#fff" opacity="0.75"/><circle cx="2364.3" cy="1705.4" r="1" fill="#fff" opacity="0.33"/><circle cx="1119.3" cy="53.4" r="0.6" fill="#fff" opacity="0.76"/><circle cx="369.3" cy="589.5" r="0.6" fill="#fff" opacity="0.55"/><circle cx="365.0" cy="1810.0" r="1.45" fill="#fff" opacity="0.45"/><circle cx="1789.4" cy="1301.9" r="0.6" fill="#fff" opacity="0.36"/><circle cx="1855.7" cy="444.4" r="0.6" fill="#fff" opacity="0.37"/><circle cx="525.6" cy="729.2" r="1.45" fill="#fff" opacity="0.30"/><circle cx="1905.0" cy="1531.2" r="0.6" fill="#fff" opacity="0.64"/><circle cx="149.9" cy="369.3" r="0.6" fill="#fff" opacity="0.46"/><circle cx="1572.0" cy="1362.0" r="0.6" fill="#fff" opacity="0.44"/><circle cx="1376.2" cy="1331.1" r="1.45" fill="#fff" opacity="0.30"/><circle cx="1274.2" cy="759.1" r="0.6" fill="#fff" opacity="0.57"/><circle cx="374.2" cy="1509.9" r="1.45" fill="#fff" opacity="0.56"/><circle cx="314.9" cy="619.4" r="1.45" fill="#fff" opacity="0.27"/><circle cx="381.8" cy="2185.7" r="0.6" fill="#fff" opacity="0.25"/><circle cx="567.8" cy="1185.4" r="1" fill="#fff" opacity="0.86"/><circle cx="2195.4" cy="1015.3" r="0.6" fill="#fff" opacity="0.84"/><circle cx="1536.2" cy="1562.3" r="1" fill="#fff" opacity="0.33"/><circle cx="2190.0" cy="935.5" r="1" fill="#fff" opacity="0.63"/><circle cx="1861.2" cy="959.9" r="0.6" fill="#fff" opacity="0.53"/><circle cx="2087.5" cy="518.2" r="0.6" fill="#fff" opacity="0.57"/><circle cx="741.6" cy="992.5" r="0.6" fill="#fff" opacity="0.36"/><circle cx="1094.8" cy="1815.7" r="0.6" fill="#fff" opacity="0.67"/><circle cx="838.4" cy="2002.3" r="0.6" fill="#fff" opacity="0.81"/><circle cx="1444.2" cy="983.5" r="0.6" fill="#fff" opacity="0.53"/><circle cx="894.7" cy="823.9" r="1.45" fill="#fff" opacity="0.91"/><circle cx="383.6" cy="615.7" r="1.45" fill="#fff" opacity="0.62"/><circle cx="1288.0" cy="1625.9" r="0.6" fill="#fff" opacity="0.84"/><circle cx="1860.9" cy="1698.4" r="0.6" fill="#fff" opacity="0.80"/><circle cx="1296.7" cy="903.2" r="1.45" fill="#fff" opacity="0.25"/><circle cx="1527.3" cy="933.4" r="0.6" fill="#fff" opacity="0.41"/><circle cx="1473.4" cy="1319.6" r="0.6" fill="#fff" opacity="0.87"/><circle cx="807.7" cy="2245.2" r="1" fill="#fff" opacity="0.84"/><circle cx="464.1" cy="1442.7" r="0.6" fill="#fff" opacity="0.62"/><circle cx="2032.8" cy="916.9" r="0.6" fill="#fff" opacity="0.43"/><circle cx="496.4" cy="248.5" r="1" fill="#fff" opacity="0.54"/><circle cx="2147.2" cy="2041.2" r="0.6" fill="#fff" opacity="0.38"/><circle cx="724.1" cy="1284.7" r="0.6" fill="#fff" opacity="0.67"/><circle cx="1908.6" cy="1675.3" r="0.6" fill="#fff" opacity="0.27"/><circle cx="1381.3" cy="182.1" r="0.6" fill="#fff" opacity="0.32"/><circle cx="153.0" cy="1227.3" r="1" fill="#fff" opacity="0.57"/><circle cx="264.3" cy="930.3" r="0.6" fill="#fff" opacity="0.62"/><circle cx="2049.0" cy="1097.2" r="1.45" fill="#fff" opacity="0.33"/><circle cx="532.2" cy="708.2" r="0.6" fill="#fff" opacity="0.48"/><circle cx="1373.2" cy="83.1" r="1.45" fill="#fff" opacity="0.66"/><circle cx="882.0" cy="2065.4" r="0.6" fill="#fff" opacity="0.49"/><circle cx="528.5" cy="135.3" r="0.6" fill="#fff" opacity="0.86"/><circle cx="1459.6" cy="2092.1" r="0.6" fill="#fff" opacity="0.55"/><circle cx="1083.0" cy="1694.8" r="1" fill="#fff" opacity="0.53"/><circle cx="7.7" cy="1458.2" r="0.6" fill="#fff" opacity="0.71"/><circle cx="1638.3" cy="2369.6" r="0.6" fill="#fff" opacity="0.32"/><circle cx="2052.4" cy="1100.5" r="0.6" fill="#fff" opacity="0.36"/><circle cx="2231.4" cy="783.9" r="1.45" fill="#fff" opacity="0.59"/><circle cx="629.0" cy="863.2" r="0.6" fill="#fff" opacity="0.41"/><circle cx="2383.3" cy="678.7" r="0.6" fill="#fff" opacity="0.46"/><circle cx="7.0" cy="1234.3" r="0.6" fill="#fff" opacity="0.79"/><circle cx="67.7" cy="1348.5" r="0.6" fill="#fff" opacity="0.59"/><circle cx="858.2" cy="2125.4" r="1" fill="#fff" opacity="0.45"/><circle cx="1741.6" cy="1980.7" r="0.6" fill="#fff" opacity="0.88"/><circle cx="428.9" cy="2139.5" r="0.6" fill="#fff" opacity="0.65"/><circle cx="2212.9" cy="2323.5" r="0.6" fill="#fff" opacity="0.43"/><circle cx="1917.1" cy="1986.4" r="1" fill="#fff" opacity="0.82"/><circle cx="969.2" cy="547.6" r="0.6" fill="#fff" opacity="0.86"/><circle cx="1896.1" cy="1386.8" r="0.6" fill="#fff" opacity="0.44"/><circle cx="514.7" cy="2104.4" r="0.6" fill="#fff" opacity="0.54"/><circle cx="2023.0" cy="246.0" r="1.45" fill="#fff" opacity="0.72"/><circle cx="1780.1" cy="1068.8" r="1" fill="#fff" opacity="0.30"/><circle cx="1348.0" cy="2005.5" r="1" fill="#fff" opacity="0.35"/><circle cx="370.1" cy="922.0" r="0.6" fill="#fff" opacity="0.60"/><circle cx="2017.4" cy="1778.8" r="0.6" fill="#fff" opacity="0.86"/><circle cx="149.4" cy="1644.0" r="0.6" fill="#fff" opacity="0.91"/><circle cx="968.4" cy="266.5" r="0.6" fill="#fff" opacity="0.53"/><circle cx="1643.8" cy="1228.1" r="0.6" fill="#fff" opacity="0.39"/><circle cx="754.2" cy="415.8" r="0.6" fill="#fff" opacity="0.60"/><circle cx="2350.7" cy="1890.2" r="0.6" fill="#fff" opacity="0.87"/><circle cx="1789.2" cy="1768.3" r="0.6" fill="#fff" opacity="0.27"/><circle cx="2173.0" cy="731.1" r="0.6" fill="#fff" opacity="0.75"/><circle cx="2112.3" cy="1042.9" r="0.6" fill="#fff" opacity="0.25"/><circle cx="14.9" cy="972.6" r="0.6" fill="#fff" opacity="0.46"/><circle cx="1107.4" cy="720.6" r="1" fill="#fff" opacity="0.57"/><circle cx="1502.4" cy="2223.4" r="0.6" fill="#fff" opacity="0.29"/><circle cx="1035.8" cy="1640.7" r="1.45" fill="#fff" opacity="0.23"/><circle cx="623.1" cy="385.8" r="1.45" fill="#fff" opacity="0.64"/><circle cx="385.2" cy="1068.8" r="1.45" fill="#fff" opacity="0.92"/><circle cx="1337.5" cy="233.1" r="0.6" fill="#fff" opacity="0.70"/><circle cx="1643.8" cy="1537.8" r="1" fill="#fff" opacity="0.22"/><circle cx="2234.9" cy="1043.2" r="1" fill="#fff" opacity="0.45"/><circle cx="305.4" cy="2295.9" r="0.6" fill="#fff" opacity="0.84"/><circle cx="1153.9" cy="165.4" r="0.6" fill="#fff" opacity="0.49"/><circle cx="796.8" cy="2205.2" r="1" fill="#fff" opacity="0.50"/><circle cx="235.4" cy="1318.4" r="0.6" fill="#fff" opacity="0.80"/><circle cx="1411.6" cy="393.0" r="0.6" fill="#fff" opacity="0.67"/><circle cx="2382.1" cy="1534.5" r="1" fill="#fff" opacity="0.85"/><circle cx="2321.9" cy="886.0" r="1" fill="#fff" opacity="0.68"/><circle cx="2029.0" cy="1092.7" r="0.6" fill="#fff" opacity="0.72"/><circle cx="1800.2" cy="2179.0" r="0.6" fill="#fff" opacity="0.56"/><circle cx="472.2" cy="505.0" r="0.6" fill="#fff" opacity="0.88"/><circle cx="1127.4" cy="776.8" r="1" fill="#fff" opacity="0.65"/><circle cx="1796.5" cy="2223.0" r="0.6" fill="#fff" opacity="0.72"/><circle cx="1924.1" cy="581.6" r="0.6" fill="#fff" opacity="0.61"/><circle cx="1963.4" cy="1742.9" r="1" fill="#fff" opacity="0.24"/><circle cx="1538.8" cy="118.4" r="1" fill="#fff" opacity="0.36"/><circle cx="1151.7" cy="1676.8" r="0.6" fill="#fff" opacity="0.25"/><circle cx="1402.7" cy="1333.0" r="0.6" fill="#fff" opacity="0.65"/><circle cx="1176.3" cy="1659.2" r="0.6" fill="#fff" opacity="0.92"/><circle cx="1032.5" cy="1170.2" r="1" fill="#fff" opacity="0.59"/><circle cx="2388.2" cy="1618.9" r="0.6" fill="#fff" opacity="0.58"/><circle cx="1015.2" cy="585.2" r="1.45" fill="#fff" opacity="0.39"/><circle cx="1471.2" cy="612.2" r="1" fill="#fff" opacity="0.44"/><circle cx="2191.7" cy="1319.1" r="0.6" fill="#fff" opacity="0.89"/><circle cx="2277.7" cy="2128.0" r="1.45" fill="#fff" opacity="0.85"/><circle cx="1311.4" cy="391.2" r="0.6" fill="#fff" opacity="0.81"/><circle cx="1891.8" cy="1104.0" r="0.6" fill="#fff" opacity="0.31"/><circle cx="1297.9" cy="1110.8" r="0.6" fill="#fff" opacity="0.86"/><circle cx="742.2" cy="1179.6" r="1.45" fill="#fff" opacity="0.53"/><circle cx="562.7" cy="1617.2" r="0.6" fill="#fff" opacity="0.30"/><circle cx="643.9" cy="317.6" r="0.6" fill="#fff" opacity="0.29"/><circle cx="344.4" cy="1502.5" r="0.6" fill="#fff" opacity="0.77"/><circle cx="310.8" cy="1054.4" r="0.6" fill="#fff" opacity="0.41"/><circle cx="2135.3" cy="667.0" r="0.6" fill="#fff" opacity="0.57"/><circle cx="766.2" cy="1368.2" r="0.6" fill="#fff" opacity="0.41"/><circle cx="35.9" cy="868.0" r="1.45" fill="#fff" opacity="0.52"/><circle cx="617.5" cy="1000.5" r="1.45" fill="#fff" opacity="0.27"/><circle cx="1625.2" cy="1451.2" r="0.6" fill="#fff" opacity="0.60"/><circle cx="1637.9" cy="873.2" r="0.6" fill="#fff" opacity="0.26"/><circle cx="319.2" cy="456.6" r="1.45" fill="#fff" opacity="0.45"/><circle cx="279.2" cy="638.8" r="0.6" fill="#fff" opacity="0.74"/><circle cx="680.0" cy="268.5" r="0.6" fill="#fff" opacity="0.29"/><circle cx="20.2" cy="828.4" r="1" fill="#fff" opacity="0.67"/><circle cx="1755.9" cy="245.6" r="1" fill="#fff" opacity="0.35"/><circle cx="1971.1" cy="678.3" r="0.6" fill="#fff" opacity="0.42"/><circle cx="604.5" cy="743.1" r="0.6" fill="#fff" opacity="0.24"/><circle cx="2039.9" cy="2204.6" r="0.6" fill="#fff" opacity="0.84"/><circle cx="1588.4" cy="2120.7" r="0.6" fill="#fff" opacity="0.63"/><circle cx="426.6" cy="997.0" r="0.6" fill="#fff" opacity="0.84"/><circle cx="1556.2" cy="418.5" r="0.6" fill="#fff" opacity="0.32"/><circle cx="884.3" cy="1167.7" r="1" fill="#fff" opacity="0.47"/><circle cx="2305.0" cy="1229.7" r="0.6" fill="#fff" opacity="0.43"/><circle cx="1273.2" cy="2399.7" r="0.6" fill="#fff" opacity="0.49"/><circle cx="2135.9" cy="804.3" r="1" fill="#fff" opacity="0.23"/><circle cx="456.6" cy="1309.9" r="1.45" fill="#fff" opacity="0.90"/><circle cx="1607.2" cy="987.1" r="0.6" fill="#fff" opacity="0.72"/><circle cx="1526.8" cy="1917.4" r="1" fill="#fff" opacity="0.53"/><circle cx="1432.3" cy="48.6" r="0.6" fill="#fff" opacity="0.26"/><circle cx="794.2" cy="562.4" r="1.45" fill="#fff" opacity="0.75"/><circle cx="1932.3" cy="2362.7" r="0.6" fill="#fff" opacity="0.66"/><circle cx="2343.1" cy="172.6" r="0.6" fill="#fff" opacity="0.22"/><circle cx="1180.7" cy="1018.2" r="0.6" fill="#fff" opacity="0.41"/><circle cx="2279.9" cy="1066.3" r="1" fill="#fff" opacity="0.66"/><circle cx="249.9" cy="1766.4" r="1" fill="#fff" opacity="0.90"/><circle cx="186.3" cy="62.6" r="1.45" fill="#fff" opacity="0.36"/><circle cx="1998.1" cy="804.4" r="0.6" fill="#fff" opacity="0.48"/><circle cx="707.8" cy="953.5" r="0.6" fill="#fff" opacity="0.80"/><circle cx="548.4" cy="1568.8" r="0.6" fill="#fff" opacity="0.23"/><circle cx="161.2" cy="113.7" r="0.6" fill="#fff" opacity="0.70"/><circle cx="1591.0" cy="2136.7" r="1" fill="#fff" opacity="0.74"/><circle cx="2349.5" cy="604.5" r="1" fill="#fff" opacity="0.74"/><circle cx="822.3" cy="1398.7" r="0.6" fill="#fff" opacity="0.22"/><circle cx="2305.8" cy="126.0" r="0.6" fill="#fff" opacity="0.45"/><circle cx="2245.4" cy="1620.4" r="1" fill="#fff" opacity="0.88"/><circle cx="200.6" cy="735.4" r="1" fill="#fff" opacity="0.32"/><circle cx="1776.9" cy="2194.4" r="0.6" fill="#fff" opacity="0.27"/><circle cx="369.0" cy="955.8" r="1.45" fill="#fff" opacity="0.88"/><circle cx="1873.7" cy="1520.1" r="0.6" fill="#fff" opacity="0.59"/><circle cx="2320.6" cy="1995.6" r="0.6" fill="#fff" opacity="0.68"/><circle cx="244.2" cy="511.3" r="0.6" fill="#fff" opacity="0.57"/><circle cx="2066.9" cy="75.6" r="0.6" fill="#fff" opacity="0.54"/><circle cx="1582.1" cy="2318.3" r="0.6" fill="#fff" opacity="0.57"/><circle cx="1302.8" cy="1393.7" r="1" fill="#fff" opacity="0.64"/><circle cx="522.6" cy="817.2" r="0.6" fill="#fff" opacity="0.86"/><circle cx="1005.8" cy="863.9" r="1" fill="#fff" opacity="0.77"/><circle cx="2355.9" cy="2114.2" r="1" fill="#fff" opacity="0.83"/><circle cx="2094.3" cy="639.3" r="0.6" fill="#fff" opacity="0.76"/><circle cx="88.8" cy="1443.9" r="0.6" fill="#fff" opacity="0.62"/><circle cx="325.5" cy="1857.4" r="0.6" fill="#fff" opacity="0.66"/><circle cx="534.3" cy="2150.3" r="1" fill="#fff" opacity="0.91"/><circle cx="1021.7" cy="459.4" r="0.6" fill="#fff" opacity="0.38"/><circle cx="1069.0" cy="582.5" r="0.6" fill="#fff" opacity="0.70"/><circle cx="413.4" cy="1313.1" r="1.45" fill="#fff" opacity="0.52"/><circle cx="444.0" cy="1715.0" r="1" fill="#fff" opacity="0.83"/><circle cx="1066.8" cy="124.2" r="0.6" fill="#fff" opacity="0.25"/><circle cx="335.8" cy="340.0" r="0.6" fill="#fff" opacity="0.69"/><circle cx="2169.0" cy="526.1" r="0.6" fill="#fff" opacity="0.40"/><circle cx="858.1" cy="778.6" r="0.6" fill="#fff" opacity="0.35"/><circle cx="2007.1" cy="388.4" r="0.6" fill="#fff" opacity="0.61"/><circle cx="94.2" cy="2179.0" r="0.6" fill="#fff" opacity="0.28"/><circle cx="540.7" cy="535.5" r="0.6" fill="#fff" opacity="0.27"/><circle cx="1801.9" cy="1449.1" r="0.6" fill="#fff" opacity="0.60"/><circle cx="550.2" cy="1773.3" r="1.9" fill="#fff" opacity="0.89"/><circle cx="550.2" cy="1773.3" r="3.5" fill="#9ec5ff" opacity="0.12"/><circle cx="699.1" cy="1946.0" r="1.9" fill="#fff" opacity="0.94"/><circle cx="699.1" cy="1946.0" r="3.5" fill="#9ec5ff" opacity="0.12"/><circle cx="88.3" cy="2131.7" r="1.9" fill="#fff" opacity="0.80"/><circle cx="88.3" cy="2131.7" r="3.5" fill="#9ec5ff" opacity="0.10"/><circle cx="1120.3" cy="784.5" r="1.9" fill="#fff" opacity="0.92"/><circle cx="1120.3" cy="784.5" r="3.5" fill="#9ec5ff" opacity="0.12"/><circle cx="1271.2" cy="1347.1" r="1.9" fill="#fff" opacity="0.56"/><circle cx="1271.2" cy="1347.1" r="3.5" fill="#9ec5ff" opacity="0.07"/><circle cx="1618.8" cy="160.0" r="1.9" fill="#fff" opacity="0.84"/><circle cx="1618.8" cy="160.0" r="3.5" fill="#9ec5ff" opacity="0.11"/><circle cx="284.7" cy="1671.2" r="1.9" fill="#fff" opacity="0.93"/><circle cx="284.7" cy="1671.2" r="3.5" fill="#9ec5ff" opacity="0.12"/><circle cx="210.9" cy="1376.7" r="1.9" fill="#fff" opacity="0.76"/><circle cx="210.9" cy="1376.7" r="3.5" fill="#9ec5ff" opacity="0.10"/><circle cx="955.0" cy="1172.0" r="1.9" fill="#fff" opacity="0.80"/><circle cx="955.0" cy="1172.0" r="3.5" fill="#9ec5ff" opacity="0.10"/><circle cx="437.5" cy="2081.0" r="1.9" fill="#fff" opacity="0.77"/><circle cx="437.5" cy="2081.0" r="3.5" fill="#9ec5ff" opacity="0.10"/><circle cx="1926.7" cy="1366.3" r="1.9" fill="#fff" opacity="0.89"/><circle cx="1926.7" cy="1366.3" r="3.5" fill="#9ec5ff" opacity="0.12"/><circle cx="1934.3" cy="2367.3" r="1.9" fill="#fff" opacity="0.77"/><circle cx="1934.3" cy="2367.3" r="3.5" fill="#9ec5ff" opacity="0.10"/><circle cx="2024.0" cy="1708.5" r="1.9" fill="#fff" opacity="0.68"/><circle cx="2024.0" cy="1708.5" r="3.5" fill="#9ec5ff" opacity="0.09"/><circle cx="1443.4" cy="148.7" r="1.9" fill="#fff" opacity="0.71"/><circle cx="1443.4" cy="148.7" r="3.5" fill="#9ec5ff" opacity="0.09"/><circle cx="176.0" cy="2320.1" r="1.9" fill="#fff" opacity="0.55"/><circle cx="176.0" cy="2320.1" r="3.5" fill="#9ec5ff" opacity="0.07"/><circle cx="1430.9" cy="2349.7" r="1.9" fill="#fff" opacity="0.92"/><circle cx="1430.9" cy="2349.7" r="3.5" fill="#9ec5ff" opacity="0.12"/><circle cx="2386.7" cy="469.2" r="1.9" fill="#fff" opacity="0.95"/><circle cx="2386.7" cy="469.2" r="3.5" fill="#9ec5ff" opacity="0.12"/><circle cx="1787.7" cy="1545.5" r="1.9" fill="#fff" opacity="0.92"/><circle cx="1787.7" cy="1545.5" r="3.5" fill="#9ec5ff" opacity="0.12"/><circle cx="314.8" cy="37.3" r="1.9" fill="#fff" opacity="0.76"/><circle cx="314.8" cy="37.3" r="3.5" fill="#9ec5ff" opacity="0.10"/><circle cx="410.0" cy="1947.9" r="1.9" fill="#fff" opacity="0.89"/><circle cx="410.0" cy="1947.9" r="3.5" fill="#9ec5ff" opacity="0.12"/><circle cx="2202.9" cy="1511.3" r="0.85" fill="#b8d4ff" opacity="0.65"/><circle cx="546.5" cy="1747.6" r="0.85" fill="#b8d4ff" opacity="0.55"/><circle cx="1352.5" cy="123.1" r="0.85" fill="#b8d4ff" opacity="0.62"/><circle cx="1023.7" cy="2310.2" r="0.85" fill="#b8d4ff" opacity="0.66"/><circle cx="1694.1" cy="1754.7" r="0.85" fill="#b8d4ff" opacity="0.62"/><circle cx="638.0" cy="1656.2" r="0.85" fill="#b8d4ff" opacity="0.54"/><circle cx="1329.1" cy="961.6" r="0.85" fill="#b8d4ff" opacity="0.45"/><circle cx="902.5" cy="2006.2" r="0.85" fill="#b8d4ff" opacity="0.35"/><circle cx="1271.2" cy="31.2" r="0.85" fill="#b8d4ff" opacity="0.39"/><circle cx="235.0" cy="765.2" r="0.85" fill="#b8d4ff" opacity="0.62"/><circle cx="2193.3" cy="1189.9" r="0.85" fill="#b8d4ff" opacity="0.36"/><circle cx="2231.5" cy="1245.6" r="0.85" fill="#b8d4ff" opacity="0.41"/><circle cx="578.3" cy="1716.7" r="0.85" fill="#b8d4ff" opacity="0.54"/><circle cx="348.7" cy="146.5" r="0.85" fill="#b8d4ff" opacity="0.61"/><circle cx="2224.3" cy="1368.0" r="0.85" fill="#b8d4ff" opacity="0.68"/><circle cx="675.4" cy="979.8" r="0.85" fill="#b8d4ff" opacity="0.61"/><circle cx="2196.2" cy="2386.7" r="0.85" fill="#b8d4ff" opacity="0.46"/><circle cx="1040.3" cy="1788.5" r="0.85" fill="#b8d4ff" opacity="0.36"/><circle cx="631.3" cy="1366.3" r="0.85" fill="#b8d4ff" opacity="0.63"/><circle cx="2003.9" cy="1816.2" r="0.85" fill="#b8d4ff" opacity="0.58"/><circle cx="2120.7" cy="719.0" r="0.85" fill="#b8d4ff" opacity="0.68"/><circle cx="2349.7" cy="2040.3" r="0.85" fill="#b8d4ff" opacity="0.49"/><circle cx="848.3" cy="1445.7" r="0.85" fill="#b8d4ff" opacity="0.45"/><circle cx="1979.0" cy="471.4" r="0.85" fill="#b8d4ff" opacity="0.54"/><circle cx="546.5" cy="2222.8" r="0.85" fill="#b8d4ff" opacity="0.64"/><circle cx="1313.4" cy="844.1" r="0.85" fill="#b8d4ff" opacity="0.49"/><circle cx="1510.2" cy="1153.5" r="0.85" fill="#b8d4ff" opacity="0.65"/><circle cx="638.8" cy="606.6" r="0.85" fill="#b8d4ff" opacity="0.69"/><circle cx="1352.5" cy="161.5" r="0.55" fill="#ffe8b8" opacity="0.45"/><circle cx="1551.4" cy="311.0" r="0.55" fill="#ffe8b8" opacity="0.49"/><circle cx="2252.9" cy="1976.9" r="0.55" fill="#ffe8b8" opacity="0.48"/><circle cx="699.1" cy="1805.3" r="0.55" fill="#ffe8b8" opacity="0.36"/><circle cx="404.4" cy="1329.1" r="0.55" fill="#ffe8b8" opacity="0.50"/><circle cx="765.2" cy="1120.3" r="0.55" fill="#ffe8b8" opacity="0.42"/><circle cx="2064.7" cy="673.5" r="0.55" fill="#ffe8b8" opacity="0.49"/><circle cx="1740.4" cy="814.2" r="0.55" fill="#ffe8b8" opacity="0.45"/><circle cx="1195.9" cy="1450.4" r="0.55" fill="#ffe8b8" opacity="0.47"/><circle cx="167.7" cy="146.5" r="0.55" fill="#ffe8b8" opacity="0.48"/><circle cx="1461.5" cy="1915.4" r="0.55" fill="#ffe8b8" opacity="0.43"/><circle cx="402.4" cy="1568.5" r="0.55" fill="#ffe8b8" opacity="0.28"/></svg>