<svg xmlns="http://www.w3.org/2000/svg" viewBox="0 0 64 64" aria-hidden="true">
  <path d="M41.7 0c6.4 0 9.6 0 13.1 1.1a13.6 13.6 0 0 1 8.1 8.1C64 12.7 64 15.9 64 22.31v19.37c0 6.42 0 9.64-1.1 13.1a13.6 13.6 0 0 1-8.1 8.1C51.3 64 48.1 64 41.7 64H22.3c-6.42 0-9.64 0-13.1-1.1a13.6 13.6 0 0 1-8.1-8.1C0 51.3 0 48.1 0 41.69V22.3c0-6.42 0-9.64 1.1-13.1a13.6 13.6 0 0 1 8.1-8.1C12.7 0 15.9 0 22.3 0h19.4z" fill="#008CFF"/>
  <path d="M45.2 14.2c1.1 1.8 1.6 3.7 1.6 5.8 0 7.3-6.2 16.8-11.2 22.2h-9.1L22.1 16.4h8.5l2.4 19.1c2.4-3.9 5.3-10 5.3-14.2 0-2.3-.4-3.9-1.1-5.2l8-1.9z" fill="#FFF"/>
</svg>
