<svg xmlns="http://www.w3.org/2000/svg" viewBox="0 0 64 64" aria-hidden="true">
  <!-- Same tile shape as Cash App for visual match -->
  <path d="M41.7 0c6.4 0 9.6 0 13.1 1.1a13.6 13.6 0 0 1 8.1 8.1C64 12.7 64 15.9 64 22.31v19.37c0 6.42 0 9.64-1.1 13.1a13.6 13.6 0 0 1-8.1 8.1C51.3 64 48.1 64 41.7 64H22.3c-6.42 0-9.64 0-13.1-1.1a13.6 13.6 0 0 1-8.1-8.1C0 51.3 0 48.1 0 41.69V22.3c0-6.42 0-9.64 1.1-13.1a13.6 13.6 0 0 1 8.1-8.1C12.7 0 15.9 0 22.3 0h19.4z" fill="#008CFF"/>
  <!-- App monogram V (white on Venmo blue) -->
  <path fill="#FFF" d="M17.6 13.5h11.4l4.95 26.2c2.55-4.15 6.85-12.35 6.85-17.55 0-2.55-.55-4.55-1.45-6.15l9.05-2.15c1.35 2.2 2.05 4.75 2.05 7.7 0 9.35-7.7 21.15-13.7 27.45H25.65L17.6 13.5z"/>
</svg>
